<?xml version="1.0" encoding="UTF-8"?><svg xmlns="http://www.w3.org/2000/svg" xmlns:xlink="http://www.w3.org/1999/xlink" viewBox="0 0 2129 510.94"><defs><style>.j{fill:url(#e);}.k{fill:url(#d);}.l{fill:url(#g);}.m{fill:url(#f);}.n{fill:url(#i);}.o{fill:url(#h);}.p{fill:#000f9f;}.q{fill:#fff;}.r{fill:#142391;}</style><linearGradient id="d" x1="404.71" y1="289.73" x2="530.57" y2="380.88" gradientTransform="matrix(1, 0, 0, 1, 0, 0)" gradientUnits="userSpaceOnUse"><stop offset="0" stop-color="#df6417"/><stop offset=".53" stop-color="#e89a2f"/><stop offset="1" stop-color="#f0c644"/></linearGradient><linearGradient id="e" x1="-19.84" y1="144.45" x2="128.14" y2="292.44" gradientTransform="matrix(1, 0, 0, 1, 0, 0)" gradientUnits="userSpaceOnUse"><stop offset="0" stop-color="#386417"/><stop offset=".77" stop-color="#7fc656"/></linearGradient><linearGradient id="f" x1="-1733.66" y1="1889.67" x2="-1510.31" y2="1949.59" gradientTransform="translate(3130.36 -783.18) rotate(25.12)" gradientUnits="userSpaceOnUse"><stop offset=".14" stop-color="#af23bc"/><stop offset=".26" stop-color="#c33cca"/><stop offset=".39" stop-color="#d24fd6"/><stop offset=".51" stop-color="#db5bdc"/><stop offset=".65" stop-color="#de5fdf"/></linearGradient><radialGradient id="g" cx="671.19" cy="17.64" fx="671.19" fy="17.64" r="326.44" gradientTransform="matrix(1, 0, 0, 1, 0, 0)" gradientUnits="userSpaceOnUse"><stop offset="0" stop-color="#5a9efb"/><stop offset=".13" stop-color="#5392f1"/><stop offset=".35" stop-color="#4173d9"/><stop offset=".66" stop-color="#2541b2"/><stop offset="1" stop-color="navy"/></radialGradient><radialGradient id="h" cx="384.34" cy="22.63" fx="384.34" fy="22.63" r="358.08" xlink:href="#g"/><radialGradient id="i" cx="671.19" cy="17.64" fx="671.19" fy="17.64" r="326.44" xlink:href="#g"/></defs><g id="a"/><g id="b"><g id="c"><g><g><g><g><path class="r" d="M291.7,458.98c-3.58,0-6.94,.53-10,1.57-3.03,1.02-5.72,2.62-7.99,4.73-2.26,2.12-4.06,4.82-5.33,8.03-1.29,3.24-1.94,7.14-1.94,11.59,0,4.04,.6,7.7,1.8,10.88,1.19,3.15,2.93,5.89,5.2,8.14,2.26,2.24,5.08,3.99,8.39,5.19,3.32,1.21,7.16,1.82,11.4,1.82,3.91,0,7.4-.49,10.37-1.47,2.98-.97,5.43-2.1,7.3-3.37,2.66-1.75,3.95-4.01,3.95-6.92v-49.74c0-1.6-.18-2.9-.53-3.85-.33-.89-.8-1.56-1.45-2.07-.66-.51-1.49-.86-2.48-1.04-2.28-.4-5.4-.4-8.16,.06-.93,.16-1.7,.3-2.28,.43v17.85l-1.6-.69c-.73-.32-1.7-.59-2.9-.82-1.21-.23-2.47-.35-3.73-.35Zm1.62,40.19c-3.78,0-6.74-1.25-8.78-3.72-1.99-2.4-3-5.95-3-10.54s1.09-8.26,3.23-10.63c2.18-2.41,5.29-3.63,9.25-3.63,2.1,0,3.93,.48,5.47,1.43l.54,.33v24.24l-.38,.34c-.65,.58-1.53,1.1-2.63,1.53-1.11,.43-2.36,.65-3.71,.65Z"/><path class="r" d="M235.04,470.65c2.3,0,4.17,.6,5.55,1.8,1.44,1.24,2.17,3.14,2.17,5.65v24.77c0,1.59,.19,2.88,.57,3.82,.36,.9,.86,1.58,1.51,2.09,.66,.51,1.49,.86,2.48,1.04,2.28,.4,5.42,.38,8.13,0,.89-.13,1.63-.26,2.2-.38v-31.95c0-5.85-1.88-10.29-5.76-13.55-3.88-3.26-9.56-4.92-16.87-4.92-4.11,0-7.9,.51-11.25,1.53-3.34,1.01-6.13,2.33-8.31,3.92-1.23,.89-2.21,1.88-2.9,2.95-.65,1-.98,2.34-.98,3.99v31.48c0,1.59,.19,2.88,.57,3.82,.36,.9,.86,1.58,1.51,2.09,.66,.51,1.49,.86,2.48,1.04,2.28,.41,5.43,.38,8.13,0,.89-.13,1.63-.26,2.2-.38v-36.1l.47-.34c1.05-.78,2.32-1.37,3.78-1.76,1.4-.37,2.84-.56,4.29-.56Z"/><path class="r" d="M175.24,470.01c3.45,0,6.05,.47,7.96,1.43,2.1,1.07,3.21,2.93,3.21,5.38v1.76l-14.28,1.59c-5.52,.59-9.62,2.12-12.19,4.52-2.55,2.39-3.78,5.75-3.78,10.29,0,2.67,.52,5.04,1.54,7.03,1.02,1.99,2.49,3.65,4.38,4.93,1.94,1.32,4.3,2.32,7.01,2.98,2.76,.67,5.92,1.01,9.39,1.01,7.71,0,13.73-1.32,17.91-3.92,1.24-.78,2.32-1.7,3.22-2.76,.8-.95,1.19-2.17,1.19-3.72v-23.51c0-3.1-.54-5.81-1.61-8.06-1.06-2.23-2.59-4.1-4.55-5.55-1.99-1.48-4.44-2.6-7.29-3.33-4.8-1.22-10.53-1.47-17.07-.6-2.55,.33-4.79,.87-6.66,1.61-1.53,.68-2.69,1.49-3.41,2.42-.68,.87-1.02,2.1-1.02,3.65,0,1.22,.27,2.42,.8,3.55,.4,.85,.87,1.54,1.39,2.05,1.83-.74,3.88-1.38,6.12-1.89,2.52-.58,5.12-.87,7.75-.87Zm3.24,30.21c-2.8,0-4.78-.52-6.05-1.58-1.32-1.11-1.98-2.55-1.98-4.3s.83-3.24,2.4-4.14c1.37-.78,3.09-1.26,5.14-1.41l8.52-.74v10.29l-.54,.33c-.81,.51-1.96,.89-3.49,1.16-1.44,.26-2.79,.38-3.99,.38Z"/><path class="r" d="M143.36,459.09c-1.89,0-3.81,.16-5.68,.46-1.88,.3-3.74,.73-5.52,1.27-1.78,.55-3.45,1.19-4.96,1.89-1.49,.69-2.75,1.47-3.74,2.3-.96,.8-1.7,1.72-2.19,2.73-.49,.99-.74,2.21-.74,3.63v31.48c0,1.59,.19,2.88,.57,3.82,.36,.9,.86,1.58,1.51,2.09,.66,.51,1.49,.86,2.48,1.04,2.28,.41,5.43,.38,8.13,0,.89-.13,1.63-.26,2.2-.38v-35.61l.65-.31c.93-.45,2.08-.85,3.4-1.18,1.27-.32,2.62-.62,4.06-.9,1.45-.28,2.95-.5,4.46-.64,1.25-.12,2.51-.19,3.74-.21,.24-.54,.45-1.12,.63-1.75,.24-.84,.36-1.7,.36-2.57,0-2.56-.76-4.33-2.34-5.41-1.68-1.15-4.05-1.74-7.04-1.74Z"/><path class="r" d="M87.61,446.18c-4.31,0-8.56,.69-12.64,2.04-4.06,1.35-7.7,3.41-10.84,6.13-3.14,2.71-5.69,6.17-7.6,10.27-1.91,4.09-2.88,8.98-2.88,14.52s.89,9.95,2.63,13.91c1.74,3.95,4.15,7.3,7.14,9.93,3,2.65,6.59,4.65,10.67,5.96,5.65,1.8,12,2.42,18.7,1.68,1.78-.2,3.52-.49,5.18-.87,1.65-.37,3.16-.82,4.51-1.32,1.35-.5,2.48-1.02,3.35-1.54,1.47-.89,2.55-1.8,3.19-2.72,.6-.85,.9-2.25,.9-4.17v-21.4c0-1.81-.44-3.14-1.35-4.08-.9-.93-2.16-1.38-3.88-1.38h-17.1c-1.45,0-2.59,.44-3.49,1.34-.89,.89-1.33,2.46-1.33,4.65,0,1.28,.17,2.52,.51,3.66,.25,.86,.52,1.61,.78,2.22h11.25v11.68l-.57,.33c-.71,.41-1.67,.76-2.94,1.07-1.22,.3-2.64,.45-4.22,.45-2.42,0-4.73-.39-6.87-1.17-2.18-.79-4.12-2.01-5.77-3.61-1.67-1.61-3-3.69-3.96-6.18-.96-2.46-1.44-5.41-1.44-8.76,0-6.23,1.8-11.2,5.34-14.77,3.55-3.57,8.36-5.37,14.32-5.37,3.3,0,6.32,.54,8.98,1.6,2.26,.9,4.21,1.84,5.83,2.78,.79-.64,1.51-1.44,2.14-2.4,.74-1.14,1.12-2.51,1.12-4.09,0-3.01-1.65-5.41-5.04-7.35-3.56-2.02-8.49-3.05-14.66-3.05Z"/><path class="r" d="M347.86,458.98c-3.03,0-6.04,.49-8.94,1.46-2.87,.96-5.46,2.47-7.69,4.48-2.23,2.02-4.06,4.64-5.43,7.8-1.38,3.16-2.08,7.01-2.08,11.45s.7,8.49,2.09,11.84c1.38,3.33,3.29,6.12,5.68,8.3,2.4,2.19,5.26,3.86,8.5,4.96,5.24,1.77,11.18,2.14,18.13,1.06,2.55-.4,4.88-1.17,6.9-2.29,2.47-1.33,3.66-3.3,3.66-6.02,0-1.2-.31-2.31-.96-3.41-.51-.87-1.12-1.59-1.8-2.14-1.52,.86-3.41,1.64-5.63,2.3-5.35,1.6-11.92,1.65-16.58-.71-2.57-1.29-4.3-3.27-5.13-5.87l-.41-1.28,26.32-4.09c2.04-.32,3.64-1.02,4.73-2.1,1.06-1.04,1.58-2.56,1.58-4.64,0-3.04-.56-5.89-1.67-8.46-1.11-2.57-2.69-4.81-4.68-6.64-2.01-1.86-4.44-3.33-7.22-4.39-2.79-1.06-5.94-1.6-9.36-1.6Zm-10.64,22.47l.08-1.44c.07-1.22,.32-2.43,.72-3.61,.42-1.22,1.05-2.33,1.88-3.31,.84-.99,1.94-1.81,3.26-2.44,1.34-.63,2.92-.95,4.69-.95,2.82,0,5.01,.83,6.51,2.47,1.43,1.57,2.28,3.18,2.52,4.81l.16,1.11-19.83,3.37Z"/><path class="r" d="M380.4,509.26h33.04c1.44,0,2.55-.42,3.37-1.27,.83-.86,1.25-2.38,1.25-4.51,0-1.27-.17-2.46-.5-3.54-.25-.82-.52-1.53-.79-2.13h-21.51l18.5-23.06c.88-1.11,1.63-2.32,2.23-3.6,.57-1.22,.85-2.42,.85-3.66,0-1.49-.28-2.85-.85-4.01-.51-1.05-1.18-2-2.01-2.81h-31.42c-1.44,0-2.54,.42-3.37,1.28-.82,.85-1.24,2.37-1.24,4.5,0,1.28,.17,2.47,.5,3.54,.25,.81,.51,1.53,.78,2.13h20.33l-18.95,23.07c-.88,1.11-1.63,2.33-2.22,3.6-.57,1.2-.85,2.43-.85,3.66,0,1.5,.28,2.85,.85,4.01,.51,1.06,1.18,2.01,2,2.82Z"/><path class="r" d="M442.68,470.01c3.45,0,6.05,.47,7.96,1.43,2.1,1.07,3.21,2.93,3.21,5.38v1.76l-14.28,1.59c-5.52,.59-9.62,2.12-12.19,4.52-2.55,2.39-3.78,5.75-3.78,10.29,0,2.67,.52,5.04,1.54,7.03,1.02,1.99,2.49,3.65,4.38,4.93,1.94,1.32,4.3,2.32,7.01,2.98,2.76,.67,5.92,1.01,9.39,1.01,7.71,0,13.73-1.32,17.91-3.92,1.24-.78,2.32-1.7,3.22-2.76,.8-.95,1.19-2.17,1.19-3.72v-23.51c0-3.1-.54-5.81-1.61-8.06-1.06-2.23-2.59-4.1-4.55-5.55-1.99-1.48-4.44-2.6-7.29-3.33-4.79-1.22-10.53-1.47-17.07-.6-2.55,.33-4.79,.87-6.66,1.61-1.53,.68-2.69,1.49-3.41,2.42-.68,.87-1.02,2.1-1.02,3.65,0,1.22,.27,2.42,.8,3.55,.4,.85,.87,1.54,1.39,2.05,1.83-.74,3.88-1.38,6.12-1.89,2.52-.58,5.12-.87,7.75-.87Zm3.24,30.21c-2.8,0-4.78-.52-6.05-1.58-1.32-1.11-1.98-2.55-1.98-4.3s.83-3.24,2.4-4.14c1.37-.78,3.09-1.26,5.14-1.41l8.52-.74v10.29l-.54,.33c-.81,.51-1.96,.89-3.49,1.16-1.44,.26-2.79,.38-3.99,.38Z"/><path class="r" d="M520.39,458.98c-3.57,0-6.94,.53-10,1.57-3.03,1.02-5.72,2.62-7.98,4.73-2.26,2.12-4.06,4.82-5.33,8.03-1.29,3.24-1.94,7.14-1.94,11.59,0,4.04,.6,7.7,1.8,10.88,1.19,3.15,2.93,5.89,5.2,8.14,2.26,2.24,5.08,3.99,8.39,5.19,3.33,1.21,7.16,1.82,11.4,1.82,3.9,0,7.39-.49,10.37-1.47,2.98-.97,5.43-2.11,7.3-3.37,2.66-1.75,3.95-4.01,3.95-6.92v-49.74c0-1.59-.18-2.89-.54-3.86-.33-.88-.8-1.56-1.45-2.06-.65-.51-1.49-.86-2.48-1.04-2.27-.4-5.41-.41-8.16,.06-.93,.16-1.69,.3-2.28,.43v17.85l-1.6-.69c-.73-.32-1.7-.59-2.9-.82-1.21-.23-2.47-.35-3.73-.35Zm1.62,40.19c-3.78,0-6.74-1.25-8.78-3.72-1.98-2.4-2.99-5.95-2.99-10.54s1.09-8.26,3.23-10.63c2.18-2.41,5.29-3.63,9.24-3.63,2.1,0,3.94,.48,5.47,1.43l.54,.34v24.23l-.37,.34c-.64,.58-1.53,1.1-2.63,1.53-1.11,.43-2.35,.65-3.71,.65Z"/><path class="r" d="M576.55,458.98c-3.03,0-6.04,.49-8.95,1.46-2.88,.96-5.47,2.47-7.69,4.48-2.23,2.02-4.06,4.64-5.44,7.79-1.38,3.17-2.08,7.02-2.08,11.46s.7,8.49,2.09,11.84c1.38,3.33,3.29,6.12,5.68,8.3,2.4,2.19,5.26,3.86,8.5,4.96,5.24,1.77,11.19,2.14,18.12,1.06,2.55-.4,4.88-1.17,6.91-2.29,2.46-1.33,3.66-3.3,3.66-6.02,0-1.2-.32-2.31-.96-3.41-.51-.86-1.11-1.59-1.8-2.14-1.52,.86-3.41,1.63-5.63,2.3-5.35,1.59-11.91,1.65-16.58-.71-2.57-1.29-4.3-3.27-5.13-5.87l-.41-1.28,26.32-4.09c2.04-.32,3.64-1.02,4.74-2.1,1.05-1.03,1.58-2.59,1.58-4.64,0-3.04-.57-5.89-1.68-8.46-1.11-2.57-2.68-4.8-4.68-6.64-2.01-1.86-4.44-3.33-7.22-4.39-2.79-1.06-5.94-1.6-9.35-1.6Zm-10.65,22.47l.09-1.44c.08-1.22,.32-2.43,.72-3.61,.42-1.22,1.05-2.33,1.88-3.31,.85-1,1.95-1.82,3.27-2.44,1.34-.63,2.92-.95,4.69-.95,2.81,0,5,.83,6.51,2.47,1.43,1.56,2.28,3.18,2.52,4.8l.16,1.11-19.84,3.37Z"/><path class="r" d="M675.52,467.5h2.49l.05,1.09c.2,4.08,.36,9.24,.46,15.36,.1,6.08,.36,12.99,.76,20.53,.11,2.24,.84,3.68,2.22,4.39,1.58,.82,3.58,1.24,5.94,1.24,1.85,0,3.37-.15,4.52-.44,.93-.23,1.84-.59,2.7-1.05-.07-1.62-.2-3.77-.37-6.47-.21-3.1-.46-6.53-.75-10.26l-.96-11.7c-.34-4.05-.67-7.9-1.01-11.53-.34-3.63-.66-6.9-.96-9.8-.3-2.84-.58-4.98-.85-6.35-.27-1.54-1.26-2.69-3.02-3.54-1.92-.93-4.48-1.41-7.59-1.41-1.86,0-3.55,.18-5.04,.54-1.29,.31-2.38,.69-3.24,1.11-1.31,3.63-2.75,8.11-4.28,13.32-1.62,5.49-3.24,11.16-4.85,17.03l-.23,.84h-2.23l-2.07-6.96c-.68-2.27-1.36-4.56-2.07-6.86-.71-2.3-1.41-4.53-2.12-6.7-.7-2.15-1.36-4.07-1.96-5.73-.86-2.35-2.15-3.99-3.94-5.01-1.84-1.05-4.47-1.58-7.83-1.58-3.09,0-5.49,.48-7.11,1.42-1.78,1.02-2.61,1.8-2.99,2.32l-2.92,53.21c0,2.11,.63,3.54,1.92,4.3,1.47,.87,3.61,1.31,6.35,1.31,1.34,0,2.71-.12,4.05-.36,.99-.16,1.83-.36,2.53-.58,.18-3.68,.32-7.06,.42-10.13,.1-3.28,.16-6.53,.2-9.74,.03-3.22,.1-6.53,.2-9.93,.1-3.4,.25-7.17,.46-11.3l.05-1.09h2.5l.21,.88c.66,2.81,1.6,6.16,2.81,9.94,1.22,3.82,2.77,8.81,4.66,14.97,.37,1.2,1.16,2.02,2.42,2.52,1.43,.57,3.31,.86,5.59,.86,1.7,0,3.19-.21,4.45-.63,1.1-.36,2.02-.83,2.74-1.4,1.75-6.17,3.28-11.39,4.56-15.53,1.27-4.08,2.25-7.51,2.92-10.22l.21-.87Z"/><path class="r" d="M726.51,458.98c-3.03,0-6.04,.49-8.95,1.46-2.88,.96-5.47,2.47-7.69,4.48-2.23,2.02-4.06,4.64-5.44,7.79-1.38,3.17-2.08,7.02-2.08,11.46s.7,8.49,2.09,11.84c1.38,3.33,3.29,6.12,5.68,8.3,2.4,2.19,5.26,3.86,8.5,4.96,5.24,1.77,11.19,2.14,18.12,1.06,2.55-.4,4.88-1.17,6.91-2.29,2.46-1.33,3.66-3.3,3.66-6.02,0-1.2-.32-2.31-.96-3.41-.51-.86-1.11-1.59-1.8-2.14-1.52,.86-3.41,1.63-5.63,2.3-5.35,1.59-11.91,1.65-16.58-.71-2.57-1.29-4.3-3.27-5.13-5.87l-.41-1.28,26.32-4.09c2.04-.32,3.64-1.02,4.74-2.1,1.05-1.03,1.58-2.59,1.58-4.64,0-3.04-.57-5.89-1.68-8.46-1.11-2.57-2.68-4.8-4.68-6.64-2.01-1.86-4.44-3.33-7.22-4.39-2.79-1.06-5.94-1.6-9.35-1.6Zm-10.65,22.47l.09-1.44c.07-1.22,.32-2.43,.72-3.61,.42-1.22,1.05-2.33,1.88-3.31,.85-1,1.95-1.82,3.27-2.44,1.34-.63,2.92-.95,4.69-.95,2.81,0,5,.83,6.51,2.47,1.43,1.56,2.28,3.18,2.52,4.8l.16,1.11-19.84,3.37Zm12.84-47.97l-13.45,10.16c-.8,.59-1.36,1.22-1.68,1.88-.33,.69-.5,1.35-.5,2.02,0,1.38,.59,2.67,1.8,3.93,1.15,1.19,2.5,1.89,4.11,2.13l12.73-6.96c2.01-1.11,3.45-2.22,4.3-3.32,.79-1.02,1.18-2.29,1.18-3.86s-.65-2.99-1.99-4.18c-1.31-1.16-3.49-1.76-6.5-1.81Z"/><path class="r" d="M777,493.77l6.42,9.49c1.37,2.03,2.8,3.77,4.25,5.17,1.31,1.27,3.07,1.93,5.36,1.99,2.05,0,3.78-.66,5.26-2.02,1.39-1.27,2.25-2.96,2.61-5.15l-13.52-18.51,7.27-8.46,2.59-3.41c.71-.94,1.3-1.78,1.75-2.53,.42-.68,.74-1.35,.96-2.01,.2-.61,.3-1.33,.3-2.11,0-1.9-.89-3.39-2.71-4.54-1.86-1.17-4.41-1.8-7.6-1.86l-11.4,16.02-7.42-10.09c-1.43-1.96-2.75-3.5-3.9-4.56-.99-.91-2.47-1.38-4.38-1.38-2.05,0-3.72,.71-5.09,2.16-1.33,1.4-2.26,3.22-2.78,5.42l13.8,16.78-8.7,10.49c-1.86,2.21-3.16,3.94-3.89,5.15-.68,1.13-1.01,2.39-1.01,3.87,0,1.82,.74,3.32,2.26,4.57,1.57,1.29,3.96,1.95,7.11,1.95,.24,0,.54-.02,.9-.05,.21-.02,.41-.03,.6-.04l10.94-16.35Z"/><path class="r" d="M808.9,461.1v41.76c0,1.59,.2,2.87,.58,3.82,.36,.9,.86,1.58,1.51,2.09,.67,.52,1.48,.86,2.48,1.04,2.21,.39,5.23,.42,8.01-.06,.92-.15,1.7-.29,2.34-.4v-41.76c0-1.58-.2-2.87-.58-3.82-.37-.9-.86-1.59-1.51-2.08-.66-.52-1.49-.86-2.48-1.04-2.22-.39-5.25-.42-8.01,.06-.92,.15-1.7,.29-2.34,.4Z"/><path class="r" d="M816.36,436.94c-2.53,0-4.49,.78-5.99,2.37-1.53,1.61-2.27,3.55-2.27,5.93s.74,4.32,2.27,5.93c1.51,1.59,3.47,2.37,6,2.37s4.49-.78,6-2.37c1.53-1.61,2.27-3.55,2.27-5.93s-.74-4.32-2.27-5.93c-1.51-1.59-3.47-2.37-6-2.37Z"/><path class="r" d="M858.86,458.98c-3.5,0-6.87,.54-10,1.62-3.1,1.06-5.88,2.68-8.25,4.8-2.36,2.12-4.25,4.86-5.63,8.14-1.39,3.31-2.09,7.23-2.09,11.68,0,3.82,.65,7.34,1.94,10.48,1.28,3.12,3.11,5.83,5.44,8.05,2.34,2.23,5.19,3.98,8.47,5.22,3.29,1.23,7.04,1.86,11.14,1.86,4.42,0,7.9-.74,10.34-2.2,2.28-1.37,3.39-3.22,3.39-5.68,0-1.42-.28-2.58-.86-3.57-.5-.85-1.23-1.67-2.18-2.44-1.04,.47-2.2,.91-3.45,1.33-1.58,.53-3.47,.79-5.62,.79-3.72,0-6.93-1.19-9.53-3.55-2.63-2.38-3.97-5.95-3.97-10.61,0-2.31,.37-4.37,1.1-6.11,.73-1.74,1.71-3.22,2.94-4.42,1.22-1.19,2.68-2.11,4.35-2.72,3.43-1.27,7.53-1.13,10.82-.07,1.3,.42,2.48,.86,3.5,1.32,.52-.63,.98-1.34,1.39-2.12,.52-.99,.79-2.06,.79-3.19,0-2.49-1.13-4.48-3.45-6.08-2.42-1.68-5.98-2.53-10.58-2.53Z"/><path class="r" d="M904.19,458.98c-3.83,0-7.33,.61-10.41,1.81-3.08,1.2-5.75,2.93-7.95,5.15-2.21,2.23-3.94,4.97-5.15,8.15-1.23,3.22-1.85,6.86-1.85,10.83s.62,7.7,1.85,10.93c1.21,3.18,2.95,5.93,5.15,8.15,2.19,2.21,4.87,3.94,7.95,5.15,3.08,1.2,6.58,1.81,10.41,1.81s7.34-.58,10.43-1.71c3.06-1.12,5.73-2.8,7.94-4.99,2.2-2.18,3.93-4.92,5.15-8.14,1.23-3.24,1.85-7.01,1.85-11.19,0-3.9-.62-7.51-1.85-10.72-1.21-3.18-2.95-5.93-5.15-8.15-2.21-2.22-4.89-3.97-7.96-5.2-3.08-1.23-6.58-1.86-10.4-1.86Zm.1,40.29c-3.21,0-5.76-1.31-7.57-3.9-1.71-2.46-2.58-5.98-2.58-10.47s.85-7.9,2.52-10.36c1.77-2.59,4.3-3.91,7.53-3.91s5.75,1.32,7.53,3.91c1.68,2.46,2.53,5.95,2.53,10.36s-.83,7.9-2.46,10.39c-1.73,2.64-4.25,3.98-7.49,3.98Z"/></g><g><path class="q" d="M335.34,320.48c0,25.42-11.55,34.99-26.64,43.44-25.5,13.71-65.38,23.17-108.89,23.17C62.15,387.09,0,302.82,0,205.23,0,94.18,81.29,16.99,200.97,16.99c48.19,0,91.09,10.71,111.7,38.63,11.84,16.05,12.19,49.72-17.29,68.52-26.36-14.72-54-25.48-85.14-25.48-91.22,0-105.94,70.47-105.99,104.83-.08,56.79,28.02,85.5,59.65,96.43,34.56,11.94,63.81,4.49,74.71-1.45v-54.44h-61.97c-2.32-4.25-12.36-25.15-9.1-49.56,1.67-12.52,9.43-28.63,33.42-28.63h97.88c27.07,0,36.49,18.39,36.49,36.49v118.15Z"/><path class="q" d="M1000,202.91c0,103.08-83.76,186.63-187.08,186.63s-187.08-83.56-187.08-186.63S709.6,16.28,812.92,16.28s187.08,83.56,187.08,186.63Zm-187.08-82.44c-46.57,0-84.33,37.19-84.33,83.06s37.75,83.06,84.33,83.06,84.33-37.19,84.33-83.06-37.75-83.06-84.33-83.06Z"/><path class="q" d="M438.84,381.11c23.74,5.24,59.69,9.1,81.14-.17,13.35-5.77,20.5-18.07,20.5-40.17V107.67s41.62,0,70.46,0c40.18,0,40.65-46.8,37.58-82.72H382.82c-42.31,0-47.98,40.18-42.54,82.72h98.56V381.11Z"/></g></g><g><path class="k" d="M438.84,381.11c23.74,5.24,59.69,9.1,81.14-.17,13.35-5.77,20.5-18.07,20.5-40.17v-15.04c-27.63,0-88.57-39.14-101.63-77.94v133.32Z"/><path class="j" d="M25.19,107.63C8.92,135.4,0,168.46,0,205.23c0,97.59,62.15,181.86,199.81,181.86,43.51,0,83.39-9.46,108.89-23.17,2.41-1.35,4.72-2.73,6.92-4.19C174.02,345.42,58.54,242.7,25.19,107.63Z"/><path class="m" d="M894.53,224.53c11.63-54.53-22.35-100.67-81.61-104.06,49.78-31.57,154.05,0,170.45,82.53,7.19,36.2,4.74,68.18-4,85.16-55.19,107.21-194.24,133.81-284.33,59.66,108.01-.11,185.1-55.87,199.48-123.3Z"/></g></g><g><path class="l" d="M648.48,24.94H382.8c-42.31,0-47.98,40.18-42.54,82.72h98.56V247.79c13.06,38.81,74,77.94,101.63,77.94V107.67s41.62,0,70.46,0c40.18,0,40.65-46.8,37.58-82.72Z"/><path class="o" d="M335.31,320.48v-118.15c0-18.1-9.42-36.49-36.49-36.49h-97.88c-23.99,0-31.75,16.11-33.42,28.63-3.26,24.42,6.78,45.31,9.1,49.56h61.97v54.44c-10.9,5.94-40.15,13.39-74.71,1.45-31.64-10.93-59.73-39.65-59.65-96.43,.05-34.37,14.77-104.83,105.99-104.83,31.13,0,58.78,10.77,85.14,25.48,29.48-18.8,29.14-52.47,17.29-68.52-20.61-27.92-63.51-38.63-111.7-38.63C120.89,16.99,58.03,51.53,25.16,107.63c33.36,135.07,148.83,237.79,290.43,252.1,11.56-7.72,19.72-17.89,19.72-39.25Z"/><path class="n" d="M894.5,224.53c.08-.36,.1-.71,.17-1.07-9.08,36.23-42.2,63.13-81.78,63.13-46.57,0-84.33-37.19-84.33-83.06s37.75-83.06,84.33-83.06c49.78-31.57,154.05,0,170.45,82.53,7.05,35.48,4.82,66.86-3.5,84.09,12.84-25.3,20.12-53.88,20.12-84.18,0-103.08-83.76-186.63-187.08-186.63s-187.08,83.56-187.08,186.63c0,58.5,27,110.7,69.23,144.92,108-.12,185.08-55.87,199.46-123.3Z"/></g></g><g><path class="p" d="M1245.72,67.72c-3.87-1.35-7.4-2.71-10.57-4.11-3.18-1.39-5.91-3.07-8.21-5.05-2.29-1.97-4.07-4.33-5.36-7.06-1.28-2.74-1.91-6.08-1.91-10.04,0-7.63,2.89-13.73,8.66-18.31,5.77-4.58,13.86-6.87,24.27-6.87,3.78,0,7.31,.27,10.58,.81,3.26,.54,6.05,1.37,8.4,2.49,2.33,1.13,4.16,2.56,5.49,4.32,1.31,1.74,1.98,3.79,1.98,6.12s-.53,4.33-1.59,5.99c-1.06,1.66-2.34,3.08-3.83,4.24-1.95-1.26-4.55-2.36-7.81-3.3-3.26-.94-6.83-1.41-10.71-1.41s-6.88,.56-8.72,1.68c-1.85,1.13-2.79,2.54-2.79,4.24,0,1.35,.58,2.45,1.73,3.3,1.14,.85,2.86,1.63,5.16,2.35l7,2.29c8.29,2.69,14.65,6.13,19.11,10.3,4.45,4.18,6.68,9.85,6.68,17.04,0,7.63-2.95,13.8-8.86,18.51-5.9,4.72-14.58,7.07-26.05,7.07-4.06,0-7.83-.33-11.31-1.01-3.48-.67-6.53-1.66-9.13-2.96-2.6-1.3-4.63-2.92-6.08-4.85-1.45-1.93-2.19-4.15-2.19-6.66s.74-4.82,2.25-6.66c1.49-1.84,3.13-3.25,4.89-4.24,2.48,1.98,5.5,3.68,9.07,5.11,3.56,1.44,7.46,2.15,11.69,2.15s7.37-.67,9.13-2.02c1.76-1.35,2.64-2.92,2.64-4.72s-.7-3.17-2.11-4.1c-1.42-.95-3.4-1.86-5.95-2.76l-5.56-1.89Z"/><path class="p" d="M1328.36,102.33c-5.2,0-10.03-.74-14.47-2.22-4.45-1.48-8.34-3.7-11.64-6.67-3.31-2.96-5.91-6.68-7.8-11.17-1.9-4.49-2.84-9.74-2.84-15.76s.94-11.02,2.84-15.28c1.89-4.26,4.38-7.76,7.48-10.51,3.07-2.73,6.61-4.75,10.58-6.05,3.96-1.3,8.01-1.96,12.16-1.96,4.67,0,8.92,.72,12.75,2.16,3.84,1.43,7.15,3.41,9.93,5.92,2.77,2.51,4.93,5.52,6.47,9.02,1.55,3.5,2.32,7.32,2.32,11.45,0,3.06-.84,5.39-2.51,7-1.68,1.62-4.01,2.65-7.01,3.09l-32.66,4.99c.97,2.96,2.95,5.18,5.95,6.66,3,1.48,6.44,2.22,10.31,2.22,3.62,0,7.03-.47,10.25-1.42,3.21-.94,5.83-2.04,7.86-3.3,1.42,.9,2.6,2.15,3.57,3.77,.97,1.62,1.46,3.32,1.46,5.11,0,4.04-1.85,7.05-5.56,9.02-2.83,1.53-6,2.56-9.52,3.09-3.53,.54-6.83,.81-9.92,.81m-3.7-52.91c-2.12,0-3.94,.36-5.49,1.08-1.54,.71-2.8,1.63-3.77,2.75-.96,1.13-1.69,2.38-2.19,3.77-.48,1.39-.77,2.81-.85,4.24l22.61-3.77c-.26-1.79-1.23-3.59-2.9-5.38-1.68-1.8-4.15-2.69-7.41-2.69"/><path class="p" d="M1403.21,50.76c-2.21,0-4.3,.36-6.28,1.08-1.99,.71-3.7,1.77-5.16,3.17-1.45,1.39-2.62,3.12-3.5,5.18-.88,2.06-1.32,4.49-1.32,7.27,0,5.57,1.57,9.74,4.7,12.52,3.12,2.78,6.94,4.18,11.44,4.18,2.64,0,4.93-.31,6.88-.94,1.93-.63,3.66-1.3,5.16-2.02,1.76,1.26,3.08,2.63,3.96,4.11,.88,1.48,1.33,3.25,1.33,5.31,0,3.69-1.72,6.54-5.16,8.55-3.44,2.02-8.2,3.03-14.28,3.03-5.56,0-10.58-.84-15.08-2.49-4.49-1.66-8.35-3.99-11.57-7-3.22-3-5.71-6.62-7.47-10.83-1.77-4.22-2.64-8.89-2.64-14.01,0-5.93,.94-11.11,2.84-15.55,1.9-4.44,4.48-8.1,7.74-10.97,3.26-2.88,7.02-5.03,11.31-6.46,4.27-1.43,8.79-2.15,13.55-2.15,6.34,0,11.24,1.17,14.67,3.5,3.44,2.33,5.16,5.34,5.16,9.01,0,1.71-.39,3.3-1.19,4.79-.79,1.48-1.71,2.75-2.77,3.83-1.51-.71-3.31-1.41-5.43-2.08-2.11-.68-4.41-1.01-6.87-1.01"/><path class="p" d="M1454.11,100.04c-.88,.27-2.27,.54-4.16,.81-1.89,.27-3.86,.41-5.88,.41s-3.68-.14-5.22-.41c-1.56-.27-2.85-.81-3.9-1.62-1.06-.81-1.88-1.9-2.45-3.29-.58-1.39-.87-3.21-.87-5.46V50.09c0-2.07,.38-3.84,1.13-5.32,.74-1.48,1.83-2.81,3.24-3.98,1.41-1.16,3.15-2.22,5.22-3.17,2.08-.94,4.3-1.77,6.68-2.49,2.38-.71,4.84-1.28,7.4-1.68,2.56-.41,5.11-.61,7.67-.61,4.24,0,7.58,.84,10.05,2.5,2.46,1.66,3.7,4.37,3.7,8.14,0,1.26-.18,2.49-.53,3.7-.35,1.21-.79,2.31-1.32,3.3-1.85,0-3.75,.09-5.68,.27-1.94,.18-3.84,.45-5.69,.81-1.85,.36-3.59,.74-5.22,1.14-1.63,.4-3.02,.88-4.16,1.42v45.91Z"/><path class="p" d="M1517.44,102.33c-5.19,0-10.03-.74-14.47-2.22-4.45-1.48-8.34-3.7-11.64-6.67-3.31-2.96-5.91-6.68-7.8-11.17-1.89-4.49-2.84-9.74-2.84-15.76s.95-11.02,2.84-15.28c1.89-4.26,4.38-7.76,7.48-10.51,3.08-2.73,6.61-4.75,10.58-6.05,3.96-1.3,8.01-1.96,12.16-1.96,4.67,0,8.92,.72,12.75,2.16,3.84,1.43,7.15,3.41,9.93,5.92,2.77,2.51,4.93,5.52,6.47,9.02,1.55,3.5,2.32,7.32,2.32,11.45,0,3.06-.84,5.39-2.51,7-1.68,1.62-4.01,2.65-7.01,3.09l-32.66,4.99c.97,2.96,2.95,5.18,5.95,6.66,3,1.48,6.44,2.22,10.31,2.22,3.62,0,7.03-.47,10.25-1.42,3.21-.94,5.83-2.04,7.86-3.3,1.42,.9,2.6,2.15,3.57,3.77,.97,1.62,1.46,3.32,1.46,5.11,0,4.04-1.85,7.05-5.56,9.02-2.83,1.53-6,2.56-9.52,3.09-3.53,.54-6.83,.81-9.92,.81m-3.7-52.91c-2.12,0-3.94,.36-5.49,1.08-1.54,.71-2.8,1.63-3.77,2.75-.96,1.13-1.69,2.38-2.19,3.77-.48,1.39-.77,2.81-.85,4.24l22.61-3.77c-.27-1.79-1.24-3.59-2.91-5.38-1.68-1.8-4.15-2.69-7.41-2.69"/><path class="p" d="M1578.54,77.69c0,2.34,.73,4,2.18,4.98,1.46,.99,3.5,1.48,6.15,1.48,1.32,0,2.69-.11,4.1-.33,1.4-.22,2.64-.51,3.7-.87,.79,.99,1.47,2.08,2.05,3.29,.58,1.21,.87,2.68,.87,4.38,0,3.41-1.26,6.2-3.78,8.35-2.5,2.15-6.94,3.23-13.29,3.23-7.75,0-13.73-1.79-17.91-5.38-4.19-3.59-6.28-9.42-6.28-17.5V21.68c.96-.27,2.35-.56,4.16-.88,1.8-.31,3.72-.47,5.74-.47,3.87,0,6.89,.7,9.05,2.09,2.16,1.4,3.24,4.33,3.24,8.82v8.62h17.32c.53,.99,1.03,2.22,1.52,3.7,.48,1.48,.73,3.12,.73,4.91,0,3.14-.68,5.41-2.05,6.8-1.37,1.39-3.2,2.09-5.49,2.09h-12.03v20.33Z"/><path class="p" d="M1635.4,32.72c4.75,0,9.1,.5,13.03,1.48,3.92,.99,7.27,2.49,10.05,4.51,2.77,2.02,4.91,4.58,6.4,7.67,1.5,3.09,2.25,6.75,2.25,10.98v30.15c0,2.34-.64,4.24-1.91,5.73-1.28,1.48-2.8,2.76-4.56,3.84-5.74,3.5-13.8,5.25-24.2,5.25-4.67,0-8.89-.45-12.63-1.34-3.75-.9-6.97-2.25-9.66-4.04-2.68-1.79-4.76-4.08-6.21-6.86-1.46-2.78-2.19-6.02-2.19-9.7,0-6.19,1.81-10.95,5.43-14.27,3.61-3.32,9.21-5.39,16.79-6.19l17.32-1.89v-.94c0-2.6-1.12-4.47-3.37-5.59-2.25-1.13-5.48-1.68-9.71-1.68-3.35,0-6.61,.36-9.78,1.08-3.18,.72-6.05,1.61-8.6,2.69-1.14-.81-2.12-2.04-2.91-3.7-.79-1.66-1.19-3.39-1.19-5.19,0-2.33,.55-4.19,1.65-5.59,1.11-1.39,2.81-2.58,5.1-3.57,2.56-.99,5.57-1.71,9.06-2.15,3.47-.45,6.76-.68,9.85-.68m1.05,52.92c1.5,0,3.15-.16,4.96-.47,1.8-.31,3.15-.74,4.03-1.28v-10.77l-9.52,.8c-2.46,.18-4.49,.72-6.08,1.62-1.59,.89-2.38,2.24-2.38,4.04s.68,3.25,2.06,4.38c1.36,1.13,3.67,1.68,6.94,1.68"/><path class="p" d="M1703.36,100.04c-.88,.27-2.27,.54-4.16,.81-1.89,.27-3.86,.41-5.88,.41s-3.68-.14-5.22-.41c-1.55-.27-2.84-.81-3.9-1.62-1.06-.81-1.88-1.9-2.45-3.29-.58-1.39-.86-3.21-.86-5.46V50.09c0-2.07,.38-3.84,1.13-5.32,.74-1.48,1.83-2.81,3.24-3.98,1.4-1.16,3.15-2.22,5.22-3.17,2.08-.94,4.3-1.77,6.68-2.49,2.38-.71,4.84-1.28,7.4-1.68,2.56-.41,5.11-.61,7.67-.61,4.23,0,7.57,.84,10.05,2.5,2.46,1.66,3.7,4.37,3.7,8.14,0,1.26-.18,2.49-.53,3.7-.35,1.21-.79,2.31-1.32,3.3-1.85,0-3.75,.09-5.69,.27-1.94,.18-3.83,.45-5.68,.81-1.85,.36-3.59,.74-5.22,1.14-1.63,.4-3.03,.88-4.16,1.42v45.91Z"/><path class="p" d="M1755.07,0c4.58,0,7.9,.9,9.98,2.69,2.08,1.79,3.11,3.95,3.11,6.46,0,2.34-.62,4.29-1.84,5.85-1.24,1.57-3.27,3.12-6.09,4.64l-17.06,9.16c-2.64-.27-4.89-1.34-6.74-3.23-1.86-1.88-2.78-3.9-2.78-6.05,0-1.08,.26-2.16,.79-3.23,.53-1.08,1.41-2.07,2.65-2.97l17.99-13.33Zm3.17,100.04c-.97,.18-2.4,.43-4.3,.74-1.9,.31-3.82,.48-5.76,.48s-3.68-.14-5.22-.41c-1.54-.27-2.84-.81-3.9-1.62-1.06-.81-1.87-1.9-2.45-3.29-.57-1.39-.85-3.21-.85-5.46V35.68c.96-.18,2.39-.42,4.3-.74,1.89-.31,3.81-.47,5.74-.47s3.69,.13,5.23,.41c1.54,.27,2.84,.8,3.9,1.61,1.06,.81,1.87,1.91,2.45,3.3,.58,1.39,.87,3.21,.87,5.45v54.8Z"/><path class="p" d="M1798.96,32.72c4.76,0,9.1,.5,13.03,1.48,3.92,.99,7.27,2.49,10.05,4.51,2.78,2.02,4.91,4.58,6.41,7.67,1.5,3.09,2.25,6.75,2.25,10.98v30.15c0,2.34-.65,4.24-1.91,5.73-1.29,1.48-2.8,2.76-4.56,3.84-5.74,3.5-13.81,5.25-24.2,5.25-4.67,0-8.89-.45-12.63-1.34-3.75-.9-6.97-2.25-9.66-4.04-2.68-1.79-4.76-4.08-6.21-6.86-1.46-2.78-2.19-6.02-2.19-9.7,0-6.19,1.81-10.95,5.42-14.27,3.61-3.32,9.21-5.39,16.8-6.19l17.31-1.89v-.94c0-2.6-1.11-4.47-3.37-5.59-2.25-1.13-5.48-1.68-9.71-1.68-3.35,0-6.62,.36-9.79,1.08-3.17,.72-6.04,1.61-8.6,2.69-1.14-.81-2.11-2.04-2.9-3.7-.8-1.66-1.2-3.39-1.2-5.19,0-2.33,.56-4.19,1.65-5.59,1.1-1.39,2.8-2.58,5.1-3.57,2.56-.99,5.57-1.71,9.05-2.15,3.48-.45,6.77-.68,9.85-.68m1.06,52.92c1.5,0,3.15-.16,4.96-.47,1.8-.31,3.15-.74,4.03-1.28v-10.77l-9.52,.8c-2.46,.18-4.5,.72-6.08,1.62-1.59,.89-2.39,2.24-2.39,4.04s.68,3.25,2.06,4.38c1.37,1.13,3.67,1.68,6.94,1.68"/><path class="p" d="M1218.48,201.79c0-5.93,.88-11.06,2.65-15.42,1.76-4.35,4.21-7.97,7.34-10.83,3.12-2.88,6.79-5.01,10.97-6.4,4.19-1.39,8.72-2.09,13.56-2.09,1.76,0,3.48,.16,5.16,.47,1.67,.31,3.04,.7,4.09,1.14v-21.81c.88-.27,2.29-.56,4.24-.88,1.93-.31,3.92-.47,5.94-.47s3.69,.13,5.22,.4c1.54,.27,2.84,.81,3.9,1.62,1.06,.81,1.85,1.91,2.38,3.3,.53,1.39,.79,3.21,.79,5.45v63.82c0,4.22-1.94,7.58-5.81,10.1-2.57,1.7-5.87,3.21-9.92,4.51-4.06,1.3-8.73,1.95-14.02,1.95-5.73,0-10.87-.81-15.4-2.42-4.55-1.62-8.38-3.95-11.51-7-3.13-3.05-5.51-6.71-7.14-10.97-1.63-4.26-2.45-9.09-2.45-14.47m37.56-16.83c-4.76,0-8.43,1.39-10.98,4.17-2.55,2.78-3.83,7.01-3.83,12.66s1.19,9.76,3.57,12.59c2.38,2.83,5.82,4.24,10.31,4.24,1.59,0,3.01-.24,4.29-.74,1.28-.5,2.27-1.05,2.98-1.68v-29.62c-1.77-1.08-3.88-1.62-6.34-1.62"/><path class="p" d="M1332.72,236.66c-5.2,0-10.03-.74-14.47-2.22-4.45-1.48-8.34-3.7-11.64-6.66-3.31-2.96-5.91-6.69-7.8-11.17-1.9-4.49-2.84-9.74-2.84-15.76s.94-11.02,2.84-15.28c1.89-4.26,4.38-7.76,7.48-10.5,3.07-2.74,6.61-4.76,10.58-6.06,3.96-1.3,8.01-1.96,12.16-1.96,4.67,0,8.92,.72,12.75,2.16,3.84,1.43,7.15,3.41,9.93,5.92,2.77,2.51,4.93,5.52,6.47,9.02,1.55,3.5,2.32,7.32,2.32,11.45,0,3.06-.84,5.39-2.51,7-1.68,1.62-4.01,2.65-7.01,3.09l-32.67,4.99c.98,2.96,2.96,5.19,5.96,6.66s6.44,2.22,10.31,2.22c3.62,0,7.03-.47,10.25-1.42,3.21-.94,5.83-2.04,7.86-3.29,1.42,.9,2.6,2.15,3.57,3.76,.97,1.62,1.46,3.33,1.46,5.12,0,4.04-1.85,7.05-5.56,9.02-2.83,1.53-6,2.56-9.52,3.09-3.53,.54-6.83,.81-9.92,.81m-3.7-52.91c-2.12,0-3.95,.36-5.5,1.08-1.54,.71-2.79,1.63-3.76,2.76-.96,1.13-1.69,2.38-2.19,3.76-.48,1.4-.77,2.81-.85,4.24l22.61-3.76c-.26-1.8-1.23-3.6-2.9-5.39-1.68-1.8-4.15-2.69-7.41-2.69"/><path class="p" d="M1455.83,152.91c.62,.99,1.17,2.31,1.66,3.97,.48,1.66,.73,3.39,.73,5.18,0,3.5-.73,5.99-2.19,7.48-1.45,1.48-3.42,2.22-5.88,2.22h-27.78v15.22h28.96c.71,.99,1.31,2.29,1.79,3.9,.48,1.62,.73,3.32,.73,5.12,0,3.41-.73,5.85-2.18,7.34-1.46,1.48-3.41,2.22-5.88,2.22h-23.14v28.41c-.97,.27-2.49,.53-4.56,.8-2.08,.27-4.12,.41-6.14,.41s-3.82-.16-5.36-.47c-1.54-.31-2.84-.88-3.9-1.68s-1.85-1.93-2.38-3.37c-.53-1.43-.8-3.32-.8-5.66v-58.57c0-3.86,1.11-6.91,3.31-9.16,2.2-2.24,5.2-3.37,8.99-3.37h44.03Z"/><path class="p" d="M1466.41,150.89c0-3.41,1.13-6.28,3.37-8.62,2.26-2.33,5.22-3.5,8.93-3.5s6.68,1.17,8.92,3.5c2.25,2.34,3.38,5.21,3.38,8.62s-1.13,6.28-3.38,8.62c-2.25,2.34-5.22,3.5-8.92,3.5s-6.68-1.16-8.93-3.5c-2.24-2.34-3.37-5.21-3.37-8.62m23.54,83.48c-.97,.18-2.4,.43-4.3,.74-1.89,.31-3.82,.47-5.76,.47s-3.69-.14-5.22-.41c-1.54-.27-2.84-.81-3.9-1.62-1.06-.81-1.87-1.91-2.45-3.3-.57-1.39-.85-3.21-.85-5.45v-54.8c.96-.18,2.4-.42,4.3-.74,1.89-.31,3.81-.47,5.75-.47s3.68,.13,5.22,.41c1.54,.27,2.84,.8,3.9,1.61,1.06,.81,1.87,1.91,2.45,3.3,.58,1.39,.87,3.21,.87,5.45v54.8Z"/><path class="p" d="M1544.96,193.03c0-2.78-.77-4.82-2.31-6.13-1.55-1.3-3.64-1.95-6.29-1.95-1.76,0-3.5,.22-5.22,.67-1.72,.45-3.19,1.12-4.42,2.02v46.72c-.88,.27-2.27,.54-4.16,.81-1.9,.27-3.86,.41-5.88,.41s-3.68-.14-5.22-.41c-1.55-.27-2.84-.81-3.9-1.62-1.05-.81-1.87-1.91-2.44-3.3-.58-1.39-.87-3.21-.87-5.45v-40.39c0-2.43,.5-4.4,1.52-5.93,1.02-1.53,2.4-2.92,4.16-4.18,3-2.15,6.77-3.9,11.31-5.25,4.53-1.35,9.58-2.02,15.13-2.02,9.96,0,17.63,2.22,23.01,6.66,5.37,4.44,8.07,10.62,8.07,18.52v42.14c-.89,.27-2.28,.54-4.16,.81-1.89,.27-3.86,.41-5.89,.41s-3.69-.14-5.22-.41c-1.54-.27-2.84-.81-3.9-1.62-1.05-.81-1.87-1.91-2.45-3.3-.57-1.39-.85-3.21-.85-5.45v-31.78Z"/><path class="p" d="M1607.76,167.04c4.76,0,9.1,.5,13.03,1.48,3.92,.99,7.28,2.49,10.05,4.52,2.78,2.02,4.91,4.58,6.41,7.67,1.5,3.09,2.25,6.75,2.25,10.97v30.15c0,2.34-.65,4.24-1.92,5.73-1.28,1.48-2.8,2.76-4.56,3.84-5.74,3.5-13.81,5.25-24.2,5.25-4.67,0-8.89-.45-12.63-1.34-3.75-.9-6.97-2.24-9.66-4.04-2.68-1.79-4.76-4.08-6.21-6.86-1.46-2.78-2.19-6.01-2.19-9.7,0-6.19,1.81-10.94,5.42-14.27,3.61-3.32,9.21-5.39,16.8-6.19l17.31-1.88v-.94c0-2.6-1.11-4.47-3.37-5.59-2.25-1.12-5.48-1.68-9.71-1.68-3.35,0-6.62,.36-9.79,1.08-3.17,.72-6.04,1.61-8.6,2.69-1.14-.81-2.12-2.04-2.91-3.7-.8-1.66-1.2-3.38-1.2-5.19,0-2.33,.55-4.19,1.65-5.59,1.1-1.39,2.8-2.58,5.1-3.57,2.56-.99,5.57-1.71,9.05-2.15,3.48-.45,6.76-.68,9.85-.68m1.06,52.92c1.5,0,3.15-.16,4.96-.47,1.8-.31,3.15-.74,4.03-1.28v-10.77l-9.52,.8c-2.46,.19-4.5,.73-6.08,1.62-1.59,.9-2.38,2.24-2.38,4.04s.68,3.26,2.06,4.38c1.36,1.13,3.67,1.68,6.94,1.68"/><path class="p" d="M1693.98,193.03c0-2.78-.77-4.82-2.31-6.13-1.55-1.3-3.64-1.95-6.29-1.95-1.76,0-3.5,.22-5.22,.67-1.71,.45-3.19,1.12-4.42,2.02v46.72c-.88,.27-2.27,.54-4.16,.81-1.89,.27-3.86,.41-5.88,.41s-3.68-.14-5.22-.41c-1.54-.27-2.84-.81-3.9-1.62-1.05-.81-1.86-1.91-2.44-3.3-.58-1.39-.87-3.21-.87-5.45v-40.39c0-2.43,.5-4.4,1.52-5.93,1.02-1.53,2.41-2.92,4.16-4.18,3-2.15,6.77-3.9,11.31-5.25,4.53-1.35,9.58-2.02,15.13-2.02,9.96,0,17.63,2.22,23.01,6.66s8.07,10.62,8.07,18.52v42.14c-.89,.27-2.28,.54-4.16,.81-1.89,.27-3.86,.41-5.89,.41s-3.69-.14-5.22-.41c-1.54-.27-2.84-.81-3.9-1.62-1.05-.81-1.87-1.91-2.45-3.3-.57-1.39-.85-3.21-.85-5.45v-31.78Z"/><path class="p" d="M1732.58,234.5c-1.41-1.26-2.54-2.74-3.37-4.44-.84-1.71-1.26-3.63-1.26-5.79,0-1.8,.42-3.57,1.26-5.32,.84-1.75,1.87-3.39,3.11-4.91l22.74-27.2h-24.33c-.53-.99-1.03-2.25-1.52-3.77-.49-1.53-.73-3.18-.73-4.98,0-3.14,.68-5.41,2.05-6.8,1.36-1.39,3.19-2.09,5.48-2.09h41.65c1.42,1.26,2.54,2.74,3.37,4.44,.84,1.71,1.26,3.63,1.26,5.79,0,1.8-.42,3.58-1.26,5.32-.84,1.76-1.87,3.39-3.11,4.91l-22.21,27.2h25.92c.53,.99,1.03,2.25,1.51,3.77,.48,1.53,.73,3.18,.73,4.98,0,3.14-.69,5.41-2.05,6.8-1.36,1.39-3.19,2.09-5.48,2.09h-43.77Z"/><path class="p" d="M1820.38,167.04c4.76,0,9.1,.5,13.03,1.48,3.92,.99,7.27,2.49,10.04,4.52,2.78,2.02,4.91,4.58,6.41,7.67,1.5,3.09,2.25,6.75,2.25,10.97v30.15c0,2.34-.64,4.24-1.91,5.73-1.28,1.48-2.8,2.76-4.56,3.84-5.74,3.5-13.81,5.25-24.2,5.25-4.67,0-8.89-.45-12.63-1.34-3.75-.9-6.97-2.24-9.66-4.04-2.68-1.79-4.76-4.08-6.21-6.86-1.46-2.78-2.19-6.01-2.19-9.7,0-6.19,1.81-10.94,5.42-14.27,3.61-3.32,9.21-5.39,16.8-6.19l17.32-1.88v-.94c0-2.6-1.12-4.47-3.37-5.59-2.25-1.12-5.48-1.68-9.71-1.68-3.35,0-6.61,.36-9.78,1.08-3.18,.72-6.05,1.61-8.6,2.69-1.14-.81-2.12-2.04-2.91-3.7-.79-1.66-1.19-3.38-1.19-5.19,0-2.33,.55-4.19,1.65-5.59,1.11-1.39,2.8-2.58,5.1-3.57,2.55-.99,5.57-1.71,9.05-2.15,3.47-.45,6.76-.68,9.85-.68m1.06,52.92c1.5,0,3.15-.16,4.96-.47,1.8-.31,3.15-.74,4.03-1.28v-10.77l-9.52,.8c-2.46,.19-4.5,.73-6.08,1.62-1.59,.9-2.38,2.24-2.38,4.04s.68,3.26,2.06,4.38c1.36,1.13,3.67,1.68,6.94,1.68"/><path class="p" d="M1920.07,214.98c0,6.82-2.51,12.16-7.54,16.02-5.02,3.86-12.43,5.79-22.22,5.79-3.69,0-7.13-.27-10.31-.81-3.17-.54-5.88-1.37-8.13-2.49-2.24-1.12-4.01-2.54-5.28-4.24-1.28-1.7-1.92-3.72-1.92-6.05,0-2.16,.44-3.98,1.32-5.45,.88-1.48,1.94-2.72,3.18-3.7,2.55,1.44,5.48,2.72,8.79,3.84,3.3,1.13,7.12,1.68,11.43,1.68,2.74,0,4.82-.4,6.28-1.2,1.45-.81,2.19-1.88,2.19-3.23,0-1.26-.53-2.25-1.6-2.96-1.05-.72-2.81-1.31-5.28-1.76l-3.97-.8c-7.67-1.53-13.38-3.93-17.12-7.2-3.75-3.28-5.62-7.97-5.62-14.07,0-3.32,.7-6.33,2.11-9.02,1.4-2.69,3.4-4.94,5.95-6.73,2.56-1.8,5.62-3.19,9.19-4.18,3.57-.99,7.51-1.48,11.83-1.48,3.26,0,6.32,.25,9.18,.74,2.87,.49,5.36,1.23,7.48,2.22,2.11,.98,3.79,2.26,5.02,3.83,1.23,1.57,1.85,3.44,1.85,5.59s-.38,3.83-1.12,5.31c-.75,1.48-1.7,2.72-2.84,3.7-.71-.45-1.77-.92-3.18-1.42-1.41-.49-2.95-.94-4.62-1.34-1.68-.4-3.37-.74-5.09-1.01-1.72-.27-3.29-.41-4.7-.41-2.91,0-5.16,.34-6.74,1.02-1.59,.67-2.38,1.72-2.38,3.16,0,.99,.44,1.8,1.32,2.43,.88,.63,2.55,1.2,5.03,1.75l4.09,.94c8.47,1.98,14.48,4.7,18.06,8.15,3.57,3.46,5.35,7.92,5.35,13.4"/><path class="p" d="M1944.41,244.33c-1.51,1.97-3.11,3.4-4.84,4.3-1.72,.9-3.81,1.35-6.28,1.35-3.88,0-7.18-1.13-9.91-3.37,1.94-5.56,3.57-11.28,4.89-17.16,1.33-5.88,2.42-11.2,3.3-15.96,1.5-.81,3.31-1.5,5.42-2.08,2.12-.59,4.24-.88,6.35-.88,2.72,0,5.13,.63,7.2,1.88,2.08,1.26,3.11,3.5,3.11,6.74,0,1.88-.26,3.97-.79,6.26-.53,2.29-1.23,4.58-2.11,6.86-.88,2.29-1.88,4.52-2.98,6.67-1.1,2.15-2.23,3.95-3.37,5.39"/><path class="p" d="M1246.12,368.29c-.96,.27-2.49,.54-4.56,.81-2.07,.27-4.12,.4-6.14,.4s-3.81-.16-5.36-.47c-1.54-.31-2.84-.88-3.9-1.69-1.06-.81-1.85-1.93-2.38-3.37-.52-1.43-.79-3.32-.79-5.65v-71.1c.97-.18,2.51-.42,4.63-.74,2.12-.31,4.15-.47,6.08-.47s3.81,.16,5.36,.47c1.54,.31,2.83,.88,3.89,1.68,1.05,.8,1.85,1.93,2.38,3.37,.53,1.43,.79,3.32,.79,5.65v71.1Z"/><path class="p" d="M1302.32,327.35c0-2.78-.77-4.82-2.31-6.13-1.55-1.3-3.64-1.95-6.29-1.95-1.76,0-3.5,.22-5.22,.67-1.72,.45-3.19,1.13-4.42,2.02v46.72c-.88,.27-2.27,.54-4.16,.81-1.9,.27-3.86,.41-5.88,.41s-3.68-.13-5.22-.41c-1.55-.27-2.84-.81-3.9-1.62-1.05-.81-1.87-1.91-2.45-3.3-.58-1.39-.86-3.21-.86-5.45v-40.39c0-2.43,.5-4.4,1.52-5.93,1.02-1.53,2.4-2.92,4.16-4.18,3-2.15,6.77-3.9,11.31-5.25,4.53-1.35,9.58-2.02,15.13-2.02,9.96,0,17.63,2.22,23.01,6.66,5.37,4.44,8.07,10.62,8.07,18.52v42.14c-.89,.27-2.28,.54-4.16,.81-1.89,.27-3.86,.41-5.89,.41s-3.69-.13-5.22-.41c-1.54-.27-2.84-.81-3.9-1.62-1.05-.81-1.87-1.91-2.45-3.3-.57-1.39-.85-3.21-.85-5.45v-31.78Z"/><path class="p" d="M1379.94,367.07c-1.23,.99-3.04,1.8-5.42,2.43-2.38,.62-5.07,.94-8.07,.94-3.44,0-6.42-.45-8.92-1.35-2.52-.9-4.26-2.34-5.23-4.3-.79-1.53-1.74-3.66-2.84-6.4-1.11-2.73-2.28-5.79-3.5-9.15-1.23-3.37-2.51-6.98-3.83-10.84-1.33-3.86-2.58-7.67-3.78-11.45-1.19-3.76-2.27-7.4-3.23-10.91-.97-3.5-1.77-6.6-2.38-9.28,1.23-1.26,2.88-2.36,4.96-3.3,2.08-.94,4.34-1.42,6.82-1.42,3.08,0,5.62,.65,7.6,1.96,1.99,1.3,3.46,3.75,4.43,7.34l5.16,20.6c.97,4.04,1.89,7.69,2.77,10.97,.88,3.27,1.54,5.81,1.99,7.6h.66c1.68-6.64,3.44-14,5.29-22.08,1.85-8.08,3.52-16.02,5.02-23.83,1.5-.81,3.2-1.44,5.09-1.88,1.89-.45,3.72-.68,5.48-.68,3.09,0,5.69,.68,7.81,2.02,2.11,1.34,3.17,3.68,3.17,7,0,1.44-.33,3.53-.99,6.26s-1.5,5.84-2.51,9.29c-1.02,3.46-2.2,7.11-3.57,10.97-1.37,3.86-2.75,7.63-4.16,11.31-1.42,3.68-2.8,7.12-4.16,10.3-1.36,3.19-2.58,5.82-3.63,7.87"/><path class="p" d="M1442.34,370.98c-5.2,0-10.03-.74-14.47-2.22-4.45-1.48-8.34-3.7-11.64-6.66-3.31-2.96-5.91-6.69-7.81-11.17-1.89-4.49-2.84-9.74-2.84-15.76s.94-11.02,2.84-15.28c1.9-4.26,4.39-7.76,7.48-10.51,3.08-2.73,6.61-4.75,10.58-6.05,3.96-1.3,8.02-1.96,12.17-1.96,4.67,0,8.92,.72,12.75,2.16,3.84,1.43,7.15,3.41,9.92,5.92,2.78,2.51,4.94,5.52,6.48,9.02,1.55,3.5,2.32,7.32,2.32,11.45,0,3.06-.84,5.39-2.51,7-1.68,1.62-4.01,2.65-7.01,3.09l-32.67,4.99c.97,2.96,2.96,5.19,5.95,6.66,3,1.48,6.45,2.22,10.32,2.22,3.61,0,7.03-.47,10.25-1.42,3.21-.94,5.83-2.04,7.86-3.29,1.41,.9,2.6,2.15,3.57,3.77,.96,1.62,1.45,3.32,1.45,5.11,0,4.04-1.85,7.05-5.55,9.02-2.83,1.53-6,2.56-9.52,3.1-3.53,.53-6.83,.8-9.92,.8m-3.7-52.91c-2.12,0-3.95,.36-5.5,1.08-1.54,.71-2.79,1.63-3.76,2.75-.96,1.13-1.69,2.38-2.19,3.77-.48,1.4-.77,2.81-.85,4.24l22.61-3.76c-.26-1.8-1.23-3.6-2.9-5.39-1.68-1.8-4.15-2.69-7.41-2.69"/><path class="p" d="M1503.44,368.69c-.88,.27-2.27,.54-4.16,.81-1.89,.27-3.86,.41-5.88,.41s-3.68-.13-5.22-.41c-1.55-.27-2.84-.81-3.9-1.62-1.06-.81-1.88-1.91-2.45-3.3-.58-1.39-.87-3.21-.87-5.45v-40.39c0-2.07,.38-3.84,1.13-5.32,.74-1.48,1.83-2.81,3.24-3.98,1.41-1.16,3.15-2.22,5.22-3.16,2.08-.94,4.3-1.77,6.68-2.49,2.38-.71,4.84-1.28,7.4-1.68,2.56-.41,5.11-.61,7.67-.61,4.24,0,7.58,.84,10.05,2.5,2.46,1.66,3.7,4.38,3.7,8.15,0,1.25-.18,2.49-.53,3.7-.35,1.21-.79,2.31-1.32,3.3-1.85,0-3.75,.09-5.68,.27-1.94,.18-3.84,.45-5.69,.8-1.85,.36-3.59,.74-5.22,1.14-1.63,.41-3.02,.88-4.16,1.42v45.91Z"/><path class="p" d="M1589.51,349.3c0,6.82-2.51,12.16-7.54,16.02-5.02,3.86-12.43,5.79-22.21,5.79-3.7,0-7.14-.27-10.31-.81-3.17-.54-5.88-1.37-8.13-2.49-2.25-1.12-4.01-2.54-5.29-4.24-1.28-1.69-1.91-3.72-1.91-6.05,0-2.16,.44-3.98,1.32-5.45,.88-1.48,1.94-2.72,3.17-3.7,2.56,1.44,5.49,2.72,8.79,3.84,3.3,1.12,7.12,1.68,11.44,1.68,2.73,0,4.82-.4,6.28-1.2,1.45-.81,2.19-1.88,2.19-3.23,0-1.26-.53-2.25-1.59-2.96-1.06-.72-2.82-1.31-5.28-1.76l-3.96-.8c-7.67-1.53-13.38-3.93-17.13-7.21-3.75-3.27-5.62-7.96-5.62-14.07,0-3.32,.7-6.33,2.11-9.02,1.41-2.7,3.4-4.94,5.96-6.74,2.55-1.79,5.62-3.18,9.19-4.17,3.57-.99,7.51-1.48,11.83-1.48,3.26,0,6.33,.25,9.18,.74,2.88,.49,5.36,1.23,7.48,2.22,2.12,.98,3.79,2.26,5.03,3.83,1.23,1.57,1.85,3.44,1.85,5.59s-.38,3.83-1.12,5.31c-.75,1.48-1.7,2.72-2.84,3.7-.71-.45-1.77-.92-3.17-1.42-1.42-.49-2.95-.94-4.63-1.34-1.68-.4-3.37-.74-5.09-1.01-1.71-.27-3.28-.41-4.69-.41-2.92,0-5.16,.34-6.75,1.02-1.58,.67-2.38,1.72-2.38,3.16,0,.99,.44,1.8,1.32,2.43,.88,.63,2.55,1.2,5.03,1.75l4.09,.94c8.47,1.98,14.48,4.69,18.06,8.15,3.57,3.46,5.35,7.92,5.35,13.4"/><path class="p" d="M1599.83,285.21c0-3.41,1.13-6.28,3.37-8.62,2.26-2.33,5.22-3.5,8.93-3.5s6.68,1.17,8.92,3.5c2.25,2.34,3.38,5.21,3.38,8.62s-1.13,6.28-3.38,8.62c-2.25,2.34-5.22,3.5-8.92,3.5s-6.68-1.16-8.93-3.5c-2.24-2.34-3.37-5.21-3.37-8.62m23.54,83.48c-.97,.18-2.4,.43-4.3,.74-1.9,.31-3.82,.47-5.76,.47s-3.69-.13-5.22-.41c-1.54-.27-2.84-.81-3.9-1.62-1.06-.81-1.87-1.91-2.45-3.3-.57-1.39-.85-3.21-.85-5.45v-54.8c.96-.18,2.4-.42,4.3-.74,1.89-.32,3.81-.47,5.75-.47s3.68,.13,5.22,.41c1.54,.27,2.84,.8,3.9,1.61,1.06,.81,1.87,1.91,2.45,3.3,.58,1.4,.87,3.21,.87,5.45v54.8Z"/><path class="p" d="M1704.16,336.11c0,5.56-.84,10.53-2.52,14.88-1.67,4.35-4.02,8.01-7.06,10.97-3.04,2.96-6.68,5.21-10.91,6.73-4.23,1.53-8.95,2.29-14.15,2.29s-9.91-.8-14.14-2.42c-4.23-1.62-7.87-3.93-10.91-6.94-3.04-3.01-5.4-6.66-7.08-10.97-1.68-4.31-2.51-9.16-2.51-14.54s.84-10.1,2.51-14.41c1.68-4.32,4.04-7.97,7.08-10.97,3.04-3.01,6.68-5.32,10.91-6.94s8.95-2.43,14.14-2.43,9.92,.84,14.15,2.49c4.24,1.66,7.87,3.99,10.91,7,3.04,3.01,5.39,6.66,7.06,10.97,1.68,4.31,2.52,9.07,2.52,14.27m-30.54-67.46c4.58,0,7.9,.9,9.98,2.7,2.07,1.8,3.11,3.95,3.11,6.46,0,2.33-.62,4.29-1.86,5.85-1.23,1.57-3.26,3.12-6.08,4.65l-17.06,9.15c-2.65-.27-4.89-1.34-6.74-3.23-1.85-1.89-2.78-3.9-2.78-6.06,0-1.08,.27-2.16,.79-3.24,.53-1.08,1.42-2.06,2.65-2.96l17.99-13.33Zm-15.74,67.46c0,5.48,1.03,9.67,3.1,12.59,2.06,2.92,4.96,4.38,8.66,4.38s6.54-1.48,8.52-4.44c1.99-2.97,2.98-7.14,2.98-12.52s-1.02-9.54-3.04-12.46c-2.03-2.92-4.89-4.38-8.6-4.38s-6.57,1.46-8.59,4.38c-2.03,2.92-3.04,7.07-3.04,12.46"/><path class="p" d="M1755.86,327.35c0-2.78-.77-4.82-2.31-6.13-1.55-1.3-3.64-1.95-6.29-1.95-1.76,0-3.5,.22-5.22,.67-1.71,.45-3.19,1.13-4.42,2.02v46.72c-.88,.27-2.27,.54-4.16,.81-1.89,.27-3.86,.41-5.88,.41s-3.68-.13-5.22-.41c-1.54-.27-2.84-.81-3.9-1.62-1.05-.81-1.86-1.91-2.44-3.3-.58-1.39-.87-3.21-.87-5.45v-40.39c0-2.43,.51-4.4,1.52-5.93,1.02-1.53,2.41-2.92,4.16-4.18,3-2.15,6.77-3.9,11.31-5.25,4.54-1.35,9.58-2.02,15.13-2.02,9.96,0,17.63,2.22,23.01,6.66s8.07,10.62,8.07,18.52v42.14c-.89,.27-2.28,.54-4.16,.81-1.89,.27-3.86,.41-5.89,.41s-3.69-.13-5.22-.41c-1.54-.27-2.84-.81-3.9-1.62-1.05-.81-1.87-1.91-2.45-3.3-.57-1.39-.85-3.21-.85-5.45v-31.78Z"/><path class="p" d="M1828.72,352.13c-.97-2.25-2.01-4.76-3.11-7.54-1.11-2.78-2.25-5.97-3.45-9.56-1.18-3.59-2.42-7.7-3.7-12.32-1.28-4.62-2.62-9.94-4.04-15.96,1.23-1.26,2.89-2.35,4.96-3.3,2.07-.94,4.34-1.41,6.81-1.41,3.08,0,5.64,.65,7.67,1.95,2.02,1.31,3.52,3.75,4.49,7.34l10.44,37.02h.54c1.06-3.05,2.09-6.37,3.11-9.96,1-3.59,2-7.29,2.97-11.11,.97-3.81,1.87-7.63,2.72-11.45,.83-3.81,1.56-7.56,2.17-11.25,3.18-1.7,6.66-2.55,10.44-2.55,3.09,0,5.65,.67,7.68,2.02,2.02,1.34,3.04,3.68,3.04,7,0,2.43-.31,5.23-.93,8.42-.62,3.18-1.43,6.57-2.45,10.16-1,3.59-2.2,7.29-3.57,11.11-1.37,3.81-2.8,7.57-4.3,11.25-1.5,3.68-3.04,7.16-4.63,10.43-1.58,3.27-3.13,6.22-4.63,8.82-2.46,4.39-4.76,7.99-6.88,10.77-2.11,2.78-4.15,4.96-6.08,6.54-1.94,1.57-3.88,2.65-5.81,3.23-1.94,.58-3.97,.87-6.09,.87-3.7,0-6.69-1.12-8.99-3.36-2.29-2.25-3.66-5.16-4.1-8.75,2.82-2.25,5.64-4.73,8.46-7.48,2.82-2.74,5.37-5.54,7.67-8.41-1.49-.45-3.11-1.5-4.82-3.17-1.73-1.66-3.6-4.78-5.62-9.36"/><path class="p" d="M1240.04,423.98c1.5-.9,3.76-1.75,6.8-2.55,3.05-.81,6.11-1.22,9.19-1.22,4.41,0,8.3,.65,11.7,1.96,3.4,1.3,5.57,3.34,6.55,6.13,1.59,4.67,3.3,10.1,5.16,16.29,1.85,6.2,3.7,12.59,5.55,19.19,1.85,6.59,3.66,13.1,5.43,19.52,1.76,6.42,3.3,12.1,4.62,17.03-1.06,1.26-2.64,2.27-4.76,3.03-2.11,.76-4.63,1.14-7.53,1.14-2.12,0-3.9-.19-5.36-.54-1.45-.36-2.65-.9-3.57-1.62-.92-.72-1.67-1.66-2.24-2.83-.58-1.16-1.08-2.51-1.53-4.04l-2.38-9.29h-23.94c-.7,2.7-1.41,5.48-2.11,8.35s-1.42,5.65-2.12,8.35c-1.23,.45-2.53,.83-3.9,1.14-1.36,.31-3.02,.47-4.95,.47-4.51,0-7.83-.79-9.99-2.36-2.15-1.56-3.24-3.75-3.24-6.53,0-1.25,.18-2.51,.53-3.76,.35-1.26,.74-2.74,1.19-4.44,.62-2.43,1.48-5.43,2.58-9.02,1.1-3.59,2.31-7.48,3.64-11.65,1.32-4.18,2.72-8.46,4.23-12.86,1.49-4.4,2.9-8.55,4.22-12.46s2.54-7.38,3.64-10.43c1.1-3.05,1.96-5.39,2.58-7m15.86,17.37c-1.23,3.77-2.63,7.97-4.16,12.58-1.54,4.62-2.93,9.32-4.16,14.07h16.4c-1.24-4.84-2.49-9.58-3.77-14.2-1.28-4.63-2.45-8.78-3.5-12.46h-.79Z"/><path class="p" d="M1300.33,470.43c0-5.93,.88-11.06,2.65-15.42,1.76-4.35,4.21-7.96,7.34-10.83,3.12-2.88,6.79-5,10.97-6.39,4.19-1.4,8.71-2.09,13.56-2.09,1.76,0,3.48,.16,5.16,.47,1.67,.31,3.04,.7,4.09,1.14v-21.81c.88-.27,2.29-.56,4.24-.88,1.94-.31,3.92-.47,5.94-.47s3.69,.13,5.22,.41c1.54,.27,2.84,.8,3.9,1.61,1.06,.81,1.85,1.91,2.38,3.3,.53,1.39,.79,3.21,.79,5.45v63.82c0,4.22-1.94,7.58-5.81,10.1-2.57,1.7-5.87,3.21-9.92,4.51-4.06,1.3-8.73,1.95-14.02,1.95-5.73,0-10.87-.8-15.4-2.42-4.55-1.62-8.38-3.95-11.51-7s-5.51-6.71-7.14-10.97c-1.63-4.26-2.45-9.09-2.45-14.47m37.56-16.83c-4.76,0-8.43,1.39-10.98,4.17-2.55,2.78-3.83,7.01-3.83,12.66s1.19,9.76,3.57,12.59c2.38,2.83,5.82,4.24,10.31,4.24,1.59,0,3.01-.25,4.29-.74,1.28-.5,2.27-1.05,2.98-1.68v-29.62c-1.77-1.08-3.89-1.62-6.35-1.62"/><path class="p" d="M1411.41,435.69c3.61,0,7.16,.52,10.65,1.55,3.48,1.03,6.5,2.58,9.05,4.65,2.64-1.8,5.62-3.28,8.92-4.44,3.31-1.17,7.3-1.76,11.97-1.76,3.35,0,6.63,.45,9.85,1.35,3.22,.9,6.09,2.31,8.6,4.24,2.51,1.93,4.51,4.49,6.01,7.67,1.5,3.19,2.25,7.08,2.25,11.65v42.41c-.88,.27-2.27,.53-4.16,.8-1.89,.27-3.86,.41-5.88,.41s-3.68-.14-5.22-.41c-1.55-.27-2.84-.8-3.9-1.62-1.06-.8-1.88-1.9-2.45-3.29-.58-1.39-.86-3.21-.86-5.46v-32.18c0-2.69-.74-4.64-2.25-5.86-1.51-1.21-3.53-1.82-6.08-1.82-1.23,0-2.56,.29-3.97,.88-1.4,.58-2.46,1.19-3.17,1.82,.09,.36,.13,.7,.13,1.01v45.71c-.97,.27-2.4,.53-4.3,.8-1.9,.27-3.81,.41-5.75,.41s-3.68-.14-5.22-.41c-1.55-.27-2.84-.8-3.9-1.62-1.06-.8-1.88-1.9-2.45-3.29-.58-1.39-.86-3.21-.86-5.46v-32.18c0-2.69-.82-4.64-2.45-5.86-1.63-1.21-3.58-1.82-5.88-1.82-1.59,0-2.96,.25-4.1,.74-1.15,.49-2.12,.96-2.91,1.41v47.26c-.88,.27-2.27,.53-4.16,.8-1.89,.27-3.86,.41-5.88,.41s-3.69-.14-5.22-.41c-1.55-.27-2.84-.8-3.9-1.62-1.06-.8-1.88-1.9-2.45-3.29-.58-1.39-.86-3.21-.86-5.46v-40.66c0-2.43,.51-4.36,1.53-5.79,1.01-1.43,2.4-2.78,4.16-4.04,3-2.15,6.71-3.9,11.17-5.25,4.45-1.34,9.1-2.02,13.95-2.02"/><path class="p" d="M1491.93,419.54c0-3.41,1.13-6.28,3.37-8.62,2.25-2.34,5.22-3.5,8.93-3.5s6.68,1.16,8.92,3.5c2.25,2.34,3.38,5.21,3.38,8.62s-1.13,6.28-3.38,8.62c-2.24,2.34-5.22,3.5-8.92,3.5s-6.68-1.16-8.93-3.5c-2.25-2.34-3.37-5.21-3.37-8.62m23.54,83.48c-.97,.18-2.4,.42-4.3,.74-1.89,.31-3.82,.48-5.76,.48s-3.68-.14-5.22-.41c-1.54-.27-2.84-.81-3.9-1.62-1.06-.81-1.88-1.9-2.45-3.29-.57-1.39-.85-3.21-.85-5.46v-54.8c.96-.18,2.4-.43,4.3-.74,1.88-.31,3.81-.47,5.74-.47s3.68,.13,5.22,.41c1.54,.27,2.84,.8,3.9,1.61,1.05,.81,1.87,1.91,2.44,3.3,.58,1.39,.87,3.21,.87,5.45v54.8Z"/><path class="p" d="M1570.47,461.68c0-2.78-.77-4.82-2.31-6.13-1.55-1.3-3.64-1.95-6.29-1.95-1.76,0-3.49,.22-5.22,.67-1.72,.45-3.2,1.12-4.43,2.02v46.72c-.88,.27-2.27,.53-4.16,.8-1.89,.27-3.86,.41-5.88,.41s-3.68-.14-5.22-.41c-1.54-.27-2.84-.8-3.9-1.62-1.06-.8-1.87-1.9-2.45-3.29-.58-1.39-.87-3.21-.87-5.45v-40.4c0-2.42,.51-4.39,1.53-5.92,1.01-1.53,2.4-2.92,4.16-4.18,3-2.15,6.76-3.9,11.31-5.24,4.54-1.35,9.58-2.03,15.13-2.03,9.97,0,17.63,2.22,23.02,6.66,5.37,4.45,8.06,10.62,8.06,18.52v42.15c-.89,.27-2.28,.53-4.16,.8-1.89,.27-3.86,.41-5.89,.41s-3.68-.14-5.22-.41c-1.54-.27-2.84-.8-3.9-1.62-1.05-.8-1.87-1.9-2.44-3.29-.57-1.39-.86-3.21-.86-5.45v-31.78Z"/><path class="p" d="M1606.31,419.54c0-3.41,1.13-6.28,3.37-8.62,2.26-2.34,5.22-3.5,8.93-3.5s6.68,1.16,8.92,3.5c2.25,2.34,3.38,5.21,3.38,8.62s-1.13,6.28-3.38,8.62c-2.25,2.34-5.22,3.5-8.92,3.5s-6.68-1.16-8.93-3.5c-2.24-2.34-3.37-5.21-3.37-8.62m23.54,83.48c-.97,.18-2.4,.42-4.3,.74-1.9,.31-3.82,.48-5.76,.48s-3.68-.14-5.22-.41c-1.54-.27-2.84-.81-3.9-1.62-1.06-.81-1.87-1.9-2.45-3.29-.57-1.39-.85-3.21-.85-5.46v-54.8c.96-.18,2.4-.43,4.3-.74,1.89-.31,3.81-.47,5.74-.47s3.69,.13,5.23,.41c1.54,.27,2.84,.8,3.9,1.61,1.06,.81,1.87,1.91,2.45,3.3s.87,3.21,.87,5.45v54.8Z"/><path class="p" d="M1698.34,483.63c0,6.82-2.51,12.16-7.54,16.02-5.02,3.86-12.43,5.79-22.22,5.79-3.7,0-7.13-.27-10.31-.81-3.17-.54-5.88-1.37-8.13-2.49-2.24-1.12-4.01-2.53-5.28-4.24-1.28-1.69-1.92-3.72-1.92-6.05,0-2.16,.44-3.97,1.32-5.45,.88-1.48,1.94-2.71,3.18-3.7,2.55,1.44,5.48,2.72,8.79,3.84,3.3,1.13,7.12,1.68,11.43,1.68,2.74,0,4.82-.41,6.28-1.21,1.45-.81,2.19-1.88,2.19-3.23,0-1.26-.54-2.24-1.6-2.96-1.05-.72-2.81-1.31-5.28-1.75l-3.97-.81c-7.67-1.53-13.38-3.92-17.12-7.2-3.75-3.28-5.62-7.97-5.62-14.07,0-3.32,.7-6.33,2.11-9.02,1.4-2.69,3.4-4.94,5.95-6.73,2.56-1.8,5.62-3.19,9.19-4.18,3.57-.99,7.51-1.48,11.83-1.48,3.26,0,6.32,.24,9.18,.74,2.87,.49,5.36,1.23,7.48,2.22,2.11,.99,3.79,2.26,5.02,3.83,1.23,1.57,1.85,3.44,1.85,5.59s-.38,3.83-1.12,5.31c-.75,1.48-1.7,2.72-2.84,3.7-.71-.45-1.77-.92-3.18-1.42-1.41-.49-2.95-.93-4.62-1.34-1.68-.4-3.37-.74-5.09-1.01-1.72-.27-3.29-.4-4.7-.4-2.91,0-5.16,.33-6.74,1.01-1.59,.67-2.38,1.72-2.38,3.16,0,.99,.44,1.8,1.32,2.43,.88,.63,2.55,1.21,5.03,1.75l4.09,.94c8.47,1.98,14.48,4.7,18.06,8.15,3.57,3.46,5.35,7.92,5.35,13.4"/><path class="p" d="M1731.66,480.67c0,2.34,.73,3.99,2.19,4.98,1.45,.99,3.5,1.48,6.14,1.48,1.32,0,2.69-.11,4.1-.33,1.4-.22,2.65-.51,3.7-.87,.8,.98,1.48,2.08,2.05,3.29s.86,2.68,.86,4.38c0,3.41-1.26,6.2-3.78,8.35-2.5,2.15-6.94,3.23-13.29,3.23-7.75,0-13.73-1.8-17.91-5.38-4.19-3.59-6.28-9.42-6.28-17.5v-57.63c.96-.27,2.35-.56,4.16-.88,1.8-.31,3.72-.47,5.74-.47,3.87,0,6.9,.7,9.05,2.09,2.16,1.39,3.24,4.33,3.24,8.82v8.62h17.32c.53,.99,1.03,2.22,1.52,3.7,.48,1.48,.73,3.12,.73,4.91,0,3.15-.68,5.41-2.05,6.8-1.37,1.39-3.2,2.09-5.49,2.09h-12.03v20.33Z"/><path class="p" d="M1784.55,503.02c-.88,.27-2.27,.53-4.16,.81-1.9,.27-3.86,.41-5.89,.41s-3.68-.14-5.22-.41c-1.55-.27-2.84-.81-3.9-1.62-1.06-.81-1.87-1.9-2.45-3.29-.58-1.39-.87-3.21-.87-5.46v-40.39c0-2.06,.38-3.84,1.13-5.32,.74-1.48,1.83-2.8,3.24-3.97,1.4-1.16,3.15-2.22,5.22-3.17,2.07-.94,4.3-1.77,6.68-2.49,2.38-.71,4.84-1.28,7.4-1.68,2.56-.41,5.11-.61,7.67-.61,4.24,0,7.58,.84,10.05,2.49,2.46,1.66,3.69,4.38,3.69,8.15,0,1.26-.18,2.49-.52,3.7-.36,1.21-.8,2.31-1.32,3.29-1.85,0-3.75,.09-5.69,.27-1.94,.18-3.84,.45-5.69,.81-1.85,.36-3.59,.74-5.22,1.14-1.63,.4-3.02,.88-4.16,1.41v45.92Z"/><path class="p" d="M1840.88,435.69c4.76,0,9.1,.5,13.03,1.48,3.92,.99,7.27,2.49,10.04,4.52,2.78,2.02,4.91,4.58,6.41,7.67,1.5,3.09,2.25,6.75,2.25,10.97v30.16c0,2.33-.65,4.24-1.91,5.72-1.29,1.48-2.8,2.76-4.56,3.84-5.74,3.5-13.81,5.25-24.2,5.25-4.67,0-8.89-.44-12.63-1.34-3.75-.9-6.97-2.24-9.66-4.04-2.68-1.8-4.76-4.09-6.21-6.87-1.46-2.78-2.19-6.01-2.19-9.7,0-6.19,1.81-10.94,5.42-14.27,3.61-3.32,9.21-5.39,16.8-6.2l17.32-1.88v-.94c0-2.6-1.12-4.47-3.37-5.59-2.25-1.12-5.48-1.68-9.71-1.68-3.35,0-6.62,.36-9.79,1.08-3.17,.72-6.04,1.61-8.6,2.69-1.14-.81-2.12-2.04-2.91-3.7-.8-1.66-1.2-3.38-1.2-5.18,0-2.34,.56-4.2,1.65-5.59,1.1-1.39,2.8-2.58,5.1-3.57,2.56-.99,5.57-1.71,9.05-2.15,3.48-.45,6.77-.68,9.85-.68m1.06,52.92c1.5,0,3.15-.15,4.96-.47,1.8-.31,3.15-.74,4.03-1.28v-10.77l-9.52,.81c-2.46,.18-4.5,.72-6.08,1.62-1.59,.9-2.38,2.25-2.38,4.04s.68,3.26,2.06,4.38c1.36,1.13,3.67,1.68,6.94,1.68"/><path class="p" d="M1922.59,453.74c-2.21,0-4.3,.36-6.28,1.08-1.99,.71-3.7,1.77-5.16,3.17-1.45,1.39-2.62,3.12-3.5,5.18-.88,2.06-1.33,4.49-1.33,7.27,0,5.57,1.57,9.74,4.7,12.52,3.12,2.78,6.94,4.18,11.44,4.18,2.65,0,4.93-.31,6.88-.94,1.93-.63,3.66-1.3,5.15-2.02,1.76,1.26,3.08,2.63,3.96,4.11,.88,1.48,1.33,3.25,1.33,5.31,0,3.68-1.71,6.53-5.16,8.55-3.44,2.02-8.19,3.03-14.28,3.03-5.55,0-10.58-.84-15.07-2.49-4.5-1.66-8.36-3.99-11.57-7-3.22-3-5.71-6.62-7.46-10.83-1.77-4.22-2.65-8.89-2.65-14.01,0-5.93,.94-11.11,2.84-15.55,1.89-4.44,4.48-8.1,7.74-10.97,3.26-2.88,7.02-5.03,11.31-6.46,4.27-1.43,8.79-2.15,13.55-2.15,6.35,0,11.24,1.16,14.68,3.5,3.43,2.33,5.16,5.34,5.16,9.01,0,1.71-.4,3.3-1.19,4.78-.8,1.49-1.72,2.76-2.78,3.84-1.51-.71-3.31-1.42-5.42-2.08-2.12-.68-4.41-1.01-6.88-1.01"/><path class="p" d="M1950.49,419.54c0-3.41,1.13-6.28,3.37-8.62,2.26-2.34,5.23-3.5,8.93-3.5s6.68,1.16,8.92,3.5c2.25,2.34,3.38,5.21,3.38,8.62s-1.13,6.28-3.38,8.62c-2.24,2.34-5.22,3.5-8.92,3.5s-6.68-1.16-8.93-3.5c-2.24-2.34-3.37-5.21-3.37-8.62m23.54,83.48c-.97,.18-2.4,.42-4.3,.74-1.89,.31-3.82,.48-5.76,.48s-3.69-.14-5.22-.41c-1.54-.27-2.84-.81-3.9-1.62-1.06-.81-1.88-1.9-2.45-3.29-.57-1.39-.85-3.21-.85-5.46v-54.8c.96-.18,2.4-.43,4.3-.74,1.88-.31,3.8-.47,5.74-.47s3.68,.13,5.22,.41c1.54,.27,2.84,.8,3.9,1.61,1.06,.81,1.88,1.91,2.45,3.3,.58,1.39,.87,3.21,.87,5.45v54.8Z"/><path class="p" d="M2054.82,470.43c0,5.56-.84,10.53-2.51,14.88-1.68,4.35-4.03,8.01-7.07,10.97-3.04,2.96-6.68,5.21-10.91,6.73-4.23,1.53-8.95,2.29-14.16,2.29s-9.91-.8-14.14-2.42-7.87-3.92-10.91-6.94c-3.04-3.01-5.4-6.66-7.08-10.97-1.68-4.3-2.51-9.16-2.51-14.54s.84-10.1,2.51-14.41c1.68-4.31,4.04-7.97,7.08-10.97,3.04-3.01,6.68-5.32,10.91-6.94s8.95-2.43,14.14-2.43,9.93,.84,14.16,2.49c4.23,1.66,7.86,3.99,10.91,7,3.04,3.01,5.39,6.66,7.07,10.97,1.68,4.31,2.51,9.07,2.51,14.27m-30.54-67.46c4.58,0,7.91,.9,9.98,2.69,2.07,1.8,3.11,3.95,3.11,6.46,0,2.34-.62,4.29-1.85,5.85-1.24,1.57-3.26,3.12-6.08,4.65l-17.06,9.16c-2.65-.27-4.9-1.34-6.75-3.23-1.85-1.88-2.77-3.9-2.77-6.06,0-1.08,.26-2.15,.78-3.23,.54-1.08,1.42-2.06,2.65-2.97l17.99-13.33Zm-15.74,67.46c0,5.48,1.03,9.68,3.1,12.59,2.06,2.92,4.96,4.38,8.66,4.38s6.54-1.48,8.52-4.44c1.99-2.96,2.98-7.14,2.98-12.52s-1.01-9.54-3.04-12.46c-2.03-2.92-4.89-4.38-8.6-4.38s-6.57,1.46-8.59,4.38c-2.03,2.92-3.04,7.07-3.04,12.46"/><path class="p" d="M2106.52,461.68c0-2.78-.77-4.82-2.31-6.13-1.55-1.3-3.64-1.95-6.29-1.95-1.76,0-3.49,.22-5.22,.67-1.71,.45-3.19,1.12-4.42,2.02v46.72c-.88,.27-2.27,.53-4.16,.8-1.89,.27-3.86,.41-5.88,.41s-3.68-.14-5.22-.41c-1.54-.27-2.84-.8-3.9-1.62-1.06-.8-1.87-1.9-2.45-3.29-.58-1.39-.87-3.21-.87-5.45v-40.4c0-2.42,.51-4.39,1.53-5.92,1.01-1.53,2.4-2.92,4.16-4.18,3-2.15,6.77-3.9,11.31-5.24,4.54-1.35,9.58-2.03,15.13-2.03,9.96,0,17.63,2.22,23.01,6.66,5.38,4.45,8.07,10.62,8.07,18.52v42.15c-.89,.27-2.28,.53-4.16,.8-1.89,.27-3.86,.41-5.89,.41s-3.68-.14-5.22-.41c-1.54-.27-2.84-.8-3.9-1.62-1.05-.8-1.87-1.9-2.45-3.29-.56-1.39-.85-3.21-.85-5.45v-31.78Z"/></g></g></g></svg>